<svg width="154" height="155" viewBox="0 0 154 155" fill="none" xmlns="http://www.w3.org/2000/svg">
<g clip-path="url(#clip0)">
<path d="M75.8088 143.96C112.024 144.003 141.394 114.62 141.437 78.3259C141.524 41.9882 112.197 12.5182 76.0254 12.4748C39.8105 12.4313 10.44 41.8144 10.3967 78.1085C10.31 114.403 39.6372 143.873 75.8088 143.96Z" fill="url(#paint0_linear)"/>
<path d="M77.3248 154.87L70.7836 148.089L63.1594 153.522L57.9611 145.742L49.4705 149.741L45.7884 141.047L36.648 143.351L34.6553 134.223L25.2984 134.832L24.9951 125.443L15.5949 124.313L17.0677 115.055L8.10063 112.229L11.1763 103.319L2.94564 98.9722L7.62412 90.8006L0.259841 84.9327L6.28122 77.8042L0.129883 70.6323L7.40752 64.7644L2.68572 56.6363L10.9597 52.1593L7.75407 43.2487L16.7645 40.4234L15.2483 31.1217L24.562 29.9481L24.8219 20.5594L34.1788 21.1245L36.1282 11.8662L45.2686 14.1265L48.9074 5.43324L57.398 9.30172L62.5529 1.43436L70.1771 6.91109L76.675 0.0869141L83.2162 6.86762L90.8404 1.34743L96.0387 9.21479L104.529 5.21591L108.211 13.9091L117.352 11.5185L119.345 20.7768L128.701 20.1682L129.005 29.5569L138.362 30.6001L136.889 39.9018L145.856 42.7271L142.737 51.6377L151.054 55.9843L146.376 64.1559L153.74 70.0238L147.719 77.1957L153.87 84.2807L146.549 90.2355L151.271 98.3637L142.997 102.841L146.202 111.664L137.235 114.533L138.752 123.835L129.438 125.008L129.178 134.397L119.821 133.832L117.872 143.09L108.731 140.83L105.092 149.523L96.6019 145.568L91.5335 153.435L83.866 148.045L77.3248 154.87Z" fill="url(#paint1_linear)"/>
<path d="M75.8085 143.873C112.023 143.916 141.394 114.533 141.437 78.239C141.524 41.9448 112.197 12.4748 76.0251 12.3879C39.8102 12.3444 10.4397 41.7275 10.3531 78.0216C10.3098 114.359 39.6369 143.829 75.8085 143.873Z" fill="url(#paint2_linear)"/>
<path d="M33.7456 80.0645C33.7889 55.5061 53.7158 35.5987 78.2345 35.6422C102.753 35.6856 122.593 55.6366 122.55 80.2383C122.507 104.84 102.623 124.704 78.1045 124.704C53.5858 124.617 33.7456 104.666 33.7456 80.0645ZM48.6474 50.4641C41.0232 58.0706 36.3448 68.546 36.3448 80.1079C36.3448 91.6699 40.9799 102.232 48.5608 109.795C56.1417 117.445 66.5816 122.096 78.1045 122.14C89.6275 122.14 100.154 117.532 107.692 109.882C115.316 102.276 119.994 91.8003 119.994 80.2383C119.994 68.6764 115.359 58.1141 107.778 50.551C100.197 42.901 89.7574 38.2501 78.2345 38.2067C66.7116 38.1632 56.2716 42.8141 48.6474 50.4641Z" fill="#80612E"/>
<path d="M32.3165 78.065C32.3598 53.4632 52.2433 33.5992 76.762 33.5992C101.281 33.6427 121.121 53.5936 121.078 78.1954C121.034 102.797 101.151 122.661 76.6321 122.661C52.1134 122.705 32.2732 102.667 32.3165 78.065ZM47.175 48.4212C39.5508 56.0712 34.9156 66.5031 34.8723 78.065C34.8723 89.627 39.5075 100.189 47.0883 107.752C54.6692 115.402 65.1092 120.053 76.6321 120.097C88.155 120.097 98.6816 115.489 106.219 107.839C113.757 100.233 118.522 89.7574 118.522 78.1954C118.522 66.6334 113.887 56.0712 106.306 48.5081C98.7249 40.8581 88.285 36.2072 76.762 36.1637C65.2391 36.1637 54.7559 40.9015 47.175 48.4212Z" fill="url(#paint3_linear)"/>
<path d="M107.302 49.5078C107.128 49.3339 106.998 49.2035 106.825 49.0296C114.103 56.5927 118.565 66.8942 118.565 78.1954C118.565 89.7573 113.886 100.276 106.262 107.839C98.6377 115.446 88.1978 120.097 76.6749 120.097C65.3685 120.097 55.1452 115.576 47.6076 108.23C47.7809 108.404 47.9109 108.535 48.0841 108.709C55.665 116.359 66.1049 121.009 77.6279 121.053C89.1508 121.053 99.6774 116.446 107.215 108.795C114.839 101.189 119.518 90.7136 119.518 79.1516C119.518 67.5896 114.882 57.0709 107.302 49.5078ZM77.7578 34.5989C89.7573 34.5989 100.674 39.4671 108.688 47.2475C100.587 38.8586 89.3241 33.6426 76.8048 33.6426C52.2428 33.5992 32.3592 53.4632 32.3159 78.065C32.3159 90.5832 37.4276 101.928 45.7449 110.056C37.9907 102.015 33.1823 91.0613 33.2256 79.0212C33.3123 54.4629 53.2391 34.5554 77.7578 34.5989Z" fill="white"/>
<path d="M21.8329 88.1057C23.8256 87.5407 25.775 88.7577 26.3815 91.018C26.9446 93.1913 25.9049 95.1907 23.8689 95.7557C21.8762 96.3208 19.9269 95.1038 19.3204 92.9305C18.6706 90.6702 19.7103 88.6708 21.8329 88.1057ZM23.2625 93.4086C24.3021 93.1043 24.7786 92.2785 24.562 91.4961C24.3021 90.7137 23.5224 90.1486 22.4827 90.4529C21.4431 90.7572 20.9665 91.583 21.1831 92.3654C21.3131 93.2347 22.1362 93.7128 23.2625 93.4086Z" fill="#212FB5"/>
<path d="M23.7823 96.712L27.2911 95.1907L28.2442 97.364L24.7786 98.8853C23.8256 99.2765 23.5657 99.8415 23.9122 100.407C24.1721 100.972 24.692 101.232 25.6883 100.798L29.1539 99.2765L30.0202 101.363L26.5114 102.884C24.6053 103.667 23.0025 103.058 22.1795 101.102C21.3131 99.1896 21.8762 97.4944 23.7823 96.712Z" fill="#212FB5"/>
<path d="M26.208 107.709L28.0707 107.405C28.1574 108.144 28.374 109.013 28.8072 109.665C29.197 110.23 29.457 110.317 29.5869 110.23C30.3233 109.752 27.5942 106.927 29.7602 105.492C30.7998 104.753 32.316 105.101 33.529 106.883C34.0055 107.709 34.3953 108.578 34.482 109.361L32.7059 109.752C32.6193 109.013 32.4027 108.404 32.0561 107.839C31.6662 107.274 31.4063 107.187 31.1897 107.361C30.4533 107.839 33.1824 110.665 31.1031 112.012C30.0634 112.751 28.5472 112.403 27.3343 110.621C26.6845 109.621 26.2513 108.535 26.208 107.709Z" fill="#212FB5"/>
<path d="M35.0882 117.358L33.7453 118.489L29.9766 114.055L35.2615 109.578L38.9437 113.838L37.6008 114.968L35.4348 112.403L34.785 112.968L36.691 115.229L35.3915 116.359L33.4854 114.098L32.749 114.664L35.0882 117.358Z" fill="#212FB5"/>
<path d="M36.7349 117.228L39.2907 114.359L41.0668 115.881L38.5976 118.706C37.8612 119.488 37.9478 120.053 38.4243 120.488C38.9008 120.879 39.464 120.879 40.2004 120.097L42.6696 117.271L44.3591 118.793L41.8032 121.662C40.417 123.183 38.6842 123.27 37.0814 121.835C35.5652 120.488 35.392 118.793 36.7349 117.228Z" fill="#212FB5"/>
<path d="M47.1749 121.01L50.1206 122.792C52.1133 124.009 52.8497 125.921 51.7234 127.79C50.5971 129.616 48.6044 129.964 46.6117 128.833L43.666 127.051L47.1749 121.01ZM47.3915 127.095C48.2579 127.573 49.1676 127.399 49.6441 126.53C50.2072 125.66 49.904 124.748 49.0809 124.269L48.2145 123.791L46.5251 126.617L47.3915 127.095Z" fill="#212FB5"/>
<path d="M54.0625 124.878L56.2285 125.834L53.3261 132.18L51.1602 131.224L54.0625 124.878Z" fill="#212FB5"/>
<path d="M63.4197 128.399L61.2537 135.006L59.391 134.354L57.8748 130.485L56.9218 133.441L54.7559 132.702L56.9218 126.095L58.7845 126.747L60.3007 130.616L61.2537 127.66L63.4197 128.399Z" fill="#212FB5"/>
<path d="M70.8704 129.79L69.6574 136.614L67.3182 136.223L67.7947 133.745L65.6287 133.354L65.1522 135.831L62.813 135.44L64.0259 128.616L66.3652 129.007L65.9753 131.398L68.1413 131.789L68.5311 129.398L70.8704 129.79Z" fill="#212FB5"/>
<path d="M77.1948 135.266L77.1081 137.048L71.3467 136.788L71.6066 129.877L77.1948 130.137L77.1081 131.919L73.7292 131.746V132.528L76.675 132.702L76.5883 134.397L73.6426 134.223L73.556 135.093L77.1948 135.266Z" fill="#212FB5"/>
<path d="M78.0181 130.05L80.3573 129.964L80.6605 136.962L78.3213 137.048L78.0181 130.05Z" fill="#212FB5"/>
<path d="M84.9058 134.614L84.2561 134.701L84.4727 136.484L82.1334 136.788L81.0938 129.877L84.386 129.399C86.2921 129.181 87.6783 129.964 87.8949 131.572C88.0681 132.528 87.635 133.441 86.9418 133.919L88.7179 135.832L86.2487 136.223L84.9058 134.614ZM84.6459 131.268L83.7795 131.441L84.0395 133.05L84.9058 132.876C85.5556 132.789 85.7722 132.398 85.7289 131.92C85.599 131.441 85.2957 131.181 84.6459 131.268Z" fill="#212FB5"/>
<path d="M88.8915 132.311C88.2417 130.311 89.4546 128.355 91.6206 127.747C93.7866 127.095 95.7793 128.095 96.429 130.094C97.0788 132.093 95.8659 134.049 93.6999 134.658C91.534 135.353 89.4546 134.31 88.8915 132.311ZM94.1331 130.789C93.8299 129.746 93.0068 129.355 92.1404 129.572C91.3174 129.833 90.8408 130.616 91.1874 131.659C91.4906 132.702 92.4003 133.093 93.1801 132.876C93.9598 132.658 94.4364 131.833 94.1331 130.789Z" fill="#212FB5"/>
<path d="M98.4648 125.4L101.497 123.791C103.49 122.661 105.569 123.096 106.609 125.008C107.649 126.921 106.825 128.877 104.833 129.92L101.8 131.528L98.4648 125.4ZM103.75 128.399C104.616 127.921 104.963 127.095 104.4 126.139C103.923 125.182 103.057 125.008 102.147 125.487L101.281 125.965L102.883 128.877L103.75 128.399Z" fill="#212FB5"/>
<path d="M112.977 122.444L114.016 123.878L109.381 127.312L105.309 121.662L109.901 118.315L110.941 119.749L108.211 121.749L108.688 122.401L111.114 120.618L112.067 121.966L109.641 123.748L110.204 124.487L112.977 122.444Z" fill="#212FB5"/>
<path d="M117.612 110.665L120.644 117.576L119.042 119.271L111.98 116.62L113.757 114.794L117.829 116.402L116.052 112.403L117.612 110.665Z" fill="#212FB5"/>
<path d="M120.124 113.055C118.435 111.838 118.132 109.578 119.431 107.752C120.731 105.927 122.94 105.449 124.63 106.622C126.319 107.839 126.622 110.1 125.323 111.925C124.023 113.794 121.771 114.272 120.124 113.055ZM123.243 108.578C122.377 107.926 121.381 108.187 120.904 108.796C120.428 109.535 120.514 110.491 121.381 111.056C122.247 111.708 123.243 111.447 123.72 110.839C124.283 110.187 124.11 109.23 123.243 108.578Z" fill="#212FB5"/>
<path d="M121.944 104.145L123.07 102.058L127.619 104.492L129.048 101.667L130.651 102.536L128.095 107.448L121.944 104.145Z" fill="#212FB5"/>
<path d="M126.622 98.8418L125.886 100.754L124.196 100.102L126.622 94.1475L128.312 94.7995L127.575 96.712L132.297 98.6679L131.431 100.841L126.622 98.8418Z" fill="#212FB5"/>
<path d="M133.294 90.9745L132.644 93.539L133.683 94.2779L133.12 96.6251L127.186 91.9742L127.749 89.714L135.2 88.5404L134.55 90.8876L133.294 90.9745ZM131.431 91.2353L129.568 91.4526L131.084 92.5828L131.431 91.2353Z" fill="#212FB5"/>
<path d="M26.0783 73.6315L24.3022 72.4145C24.8654 71.7625 25.3419 70.8062 25.4285 70.0238C25.6018 69.2849 25.4285 68.9806 25.1686 68.9806C24.2156 68.8068 24.2156 73.2403 21.3132 72.6753C19.8837 72.4145 18.9306 70.9801 19.4072 68.5895C19.5804 67.5463 19.9703 66.5031 20.6201 65.7642L22.3962 66.8943C21.833 67.6332 21.5731 68.2417 21.4432 68.8937C21.2699 69.6326 21.4432 69.9369 21.7464 70.0238C22.6994 70.1977 22.6128 65.7642 25.5152 66.3292C26.9447 66.59 27.8977 68.0244 27.4212 70.415C27.2046 71.719 26.6415 72.9361 26.0783 73.6315Z" fill="#212FB5"/>
<path d="M28.5043 60.809L27.5513 63.6343L28.6776 64.5906L27.8112 67.1551L21.5732 61.3741L22.4396 58.8965L30.8436 58.201L29.9772 60.7655L28.5043 60.809ZM26.5116 60.8525L24.4323 60.9394L26.0351 62.2869L26.5116 60.8525Z" fill="#212FB5"/>
<path d="M26.5113 54.2891L25.4716 56.2885L23.6089 55.3323L26.9878 48.8993L28.8505 49.8555L27.8109 51.855L32.9225 54.5064L31.623 56.897L26.5113 54.2891Z" fill="#212FB5"/>
<path d="M27.811 47.8562L29.2406 45.6829L35.7385 50.0295L34.3089 52.2028L27.811 47.8562Z" fill="#212FB5"/>
<path d="M35.4785 49.0732L34.5255 47.2042C35.3486 46.8999 36.215 46.3349 36.6915 45.6829C37.168 45.1178 37.2546 44.8136 36.9947 44.6397C36.2583 43.9877 34.0923 47.8562 31.883 45.9872C30.7567 45.0309 30.5835 43.3357 32.2296 41.4667C32.8794 40.6843 33.7458 39.9454 34.6555 39.6411L35.6951 41.4232C34.8721 41.7275 34.3522 42.2056 33.8324 42.7272C33.3559 43.2923 33.3559 43.5965 33.5725 43.8573C34.3089 44.4224 36.4749 40.6408 38.6408 42.5099C39.7671 43.3792 39.9404 45.1613 38.2943 47.0303C37.5145 47.9431 36.3882 48.7255 35.4785 49.0732Z" fill="#212FB5"/>
<path d="M38.8575 37.5981L39.7239 38.5544L42.1497 36.3811L43.4926 37.8154L41.0668 39.9887L42.7562 41.8578L40.8502 43.6399L35.6519 37.9458L40.287 33.6862L41.6299 35.1205L38.8575 37.5981Z" fill="#212FB5"/>
<path d="M49.4704 35.1206L47.0012 36.8157L47.3044 38.2501L45.0518 39.7714L43.5356 31.426L45.7016 29.9916L52.8926 34.599L50.64 36.1203L49.4704 35.1206ZM47.7809 33.9035L46.0048 32.6865L46.4814 34.7728L47.7809 33.9035Z" fill="#212FB5"/>
<path d="M57.0944 29.4266L59.2604 30.0785C59.0005 31.2087 58.2207 32.1649 57.0078 32.8169L57.0944 33.2081C57.7442 32.9473 58.1341 33.295 58.3074 33.5993C58.6106 34.2513 58.1341 35.0337 57.0944 35.5118C56.7912 35.6857 56.2714 35.7726 55.9681 35.7726L55.8815 34.7729C56.0548 34.7729 56.2714 34.686 56.5313 34.599C56.8345 34.4252 56.9212 34.2948 56.9212 34.1209C56.8345 33.947 56.6613 33.947 56.4447 34.1209L56.0548 34.2948L55.7949 33.2516C53.8022 33.7297 51.9395 32.9038 51.0731 30.9913C50.0334 28.818 50.9864 26.4709 53.3257 25.4711C54.6686 24.8192 56.0548 24.8192 57.1811 25.3842L56.3147 27.3837C55.6649 27.0794 55.0151 26.9925 54.4087 27.2967C53.4556 27.7748 53.0658 28.7311 53.5856 29.8612C54.0621 30.9913 55.1018 31.2956 56.0548 30.9044C56.5746 30.6001 56.9212 30.122 57.0944 29.4266Z" fill="#212FB5"/>
<path d="M60.4738 22.3416L59.3475 22.6459C59.0443 21.5158 59.4341 20.6465 60.3005 20.3857C61.1236 20.1249 61.6434 20.6899 62.0766 20.5595C62.3365 20.4726 62.4665 20.2553 62.3798 19.9075L63.5061 19.6033C63.8094 20.7334 63.4195 21.6027 62.5531 21.8635C61.7301 22.1243 61.2102 21.5592 60.777 21.6896C60.4738 21.7766 60.3872 22.0374 60.4738 22.3416ZM64.9357 28.4703L62.0333 29.2527L61.86 30.6871L59.3042 31.426L60.5171 22.9936L62.9863 22.2547L68.3579 28.8615L65.7154 29.6005L64.9357 28.4703ZM63.7227 26.8621L62.4232 25.1669L62.1632 27.2533L63.7227 26.8621Z" fill="#212FB5"/>
<path d="M67.7515 25.0799C67.5349 22.7327 69.181 20.8202 71.7802 20.6029C74.336 20.3856 76.3287 21.9069 76.5886 24.2106C76.8052 26.5577 75.1591 28.4702 72.5599 28.6876C69.9608 29.0353 67.9681 27.514 67.7515 25.0799ZM73.8162 24.5148C73.7295 23.2978 72.8632 22.6458 71.9101 22.7327C70.9571 22.8197 70.2207 23.602 70.394 24.8191C70.4806 26.0361 71.347 26.6881 72.3 26.6012C73.253 26.5577 73.9895 25.7319 73.8162 24.5148Z" fill="#212FB5"/>
<path d="M86.4221 24.9496L88.6747 25.2539L88.1982 28.5573C87.1585 29.0354 85.7723 29.2093 84.6893 29.1224C82.2201 28.8181 80.6173 26.8621 80.9205 24.4715C81.2237 22.0808 83.3464 20.6899 85.9022 21.0377C87.4184 21.2985 88.5447 21.907 89.2811 23.0371L87.4184 24.2542C87.0285 23.6022 86.4654 23.2979 85.8156 23.124C84.6893 22.9502 83.8229 23.6022 83.6496 24.8192C83.4764 25.9493 84.1261 26.8187 85.2524 26.9925C85.5557 27.0794 85.9022 26.9925 86.2055 26.9056L86.4221 24.9496Z" fill="#212FB5"/>
<path d="M94.4357 29.8612L91.62 28.9919L90.7536 30.122L88.1978 29.2961L93.8293 22.8632L96.2985 23.689L97.2515 32.2084L94.6957 31.3825L94.4357 29.8612ZM94.3491 27.7748L94.1758 25.6885L92.8762 27.3836L94.3491 27.7748Z" fill="#212FB5"/>
<path d="M101.064 32.0345L100.414 31.7302L99.5477 33.5123L97.2085 32.2953L100.761 25.2972L104.14 26.9924C106.046 27.9487 106.782 29.6438 105.959 31.2521C105.482 32.2953 104.573 32.7734 103.533 32.7734L103.923 35.6856L101.454 34.3817L101.064 32.0345ZM103.013 28.6876L102.147 28.2964L101.324 29.9046L102.19 30.2958C102.84 30.6001 103.317 30.4697 103.533 29.9916C103.793 29.47 103.62 29.0788 103.013 28.6876Z" fill="#212FB5"/>
<path d="M109.381 37.9894L106.999 36.2072L105.786 36.9896L103.62 35.3814L110.984 31.1217L113.063 32.643L111.201 40.9885L109.035 39.3803L109.381 37.9894ZM109.944 35.9899L110.507 33.9905L108.731 35.1206L109.944 35.9899Z" fill="#212FB5"/>
<path d="M122.29 41.3362L116.659 46.813L115.143 45.2916L115.619 40.7277L113.063 43.2053L111.331 41.2928L116.962 35.816L118.478 37.3374L118.002 41.9013L120.558 39.4237L122.29 41.3362Z" fill="#212FB5"/>
<path d="M122.853 45.5959L121.554 43.7268L123.243 42.5098L127.402 48.3777L125.712 49.5947L124.369 47.7257L119.648 51.0726L118.131 48.8993L122.853 45.5959Z" fill="#212FB5"/>
<path d="M127.965 49.5948L129.265 51.942L122.464 55.8105L121.164 53.4633L127.965 49.5948Z" fill="#212FB5"/>
<path d="M130.305 53.7241L131.734 57.2449C132.687 59.6355 131.951 61.8957 129.741 62.7651C127.489 63.6344 125.409 62.5912 124.456 60.1136L123.027 56.5929L130.305 53.7241ZM126.362 59.3312C126.752 60.3744 127.662 60.7656 128.745 60.3744C129.871 59.8963 130.175 59.027 129.785 57.9838L129.395 56.9406L125.929 58.2881L126.362 59.3312Z" fill="#212FB5"/>
<path d="M128.658 69.6761L128.008 66.7639L126.579 66.5031L126.016 63.8517L134.333 65.5469L134.896 68.1114L128.008 73.0665L127.445 70.4151L128.658 69.6761ZM130.434 68.5895L132.21 67.4594L130.131 67.1551L130.434 68.5895Z" fill="#212FB5"/>
<path d="M76.0251 8.78007C37.7742 8.73661 6.75758 39.8583 6.67094 78.1085C6.62762 116.446 37.6875 147.567 75.8085 147.654C113.973 147.698 145.076 116.576 145.163 78.3258C145.206 39.9887 114.233 8.82354 76.0251 8.78007ZM75.8085 144.003C39.5936 143.96 10.3098 114.49 10.3531 78.1954C10.3964 41.8578 39.7669 12.5182 75.9818 12.5616C112.197 12.6051 141.48 42.0751 141.437 78.3693C141.437 114.62 112.023 144.09 75.8085 144.003Z" fill="url(#paint4_linear)"/>
<path d="M120.254 78.6735C120.211 102.145 101.281 121.053 77.8882 121.053C54.5824 121.009 35.6086 102.015 35.6519 78.5866C35.6952 55.1149 54.6258 36.2072 78.0182 36.2072C101.367 36.2072 120.254 55.2888 120.254 78.6735Z" fill="#4955FF"/>
<path d="M76.9351 110.447L75.5056 107.405L72.04 106.84L74.5092 104.492L73.9461 101.102L76.8918 102.71L79.9241 101.102L79.361 104.492L81.7436 106.926L78.3646 107.405L76.9351 110.447Z" fill="#E6AC4B"/>
<path d="M91.4903 106.927L89.8009 105.144L87.375 105.536L88.5013 103.362L87.375 101.189L89.7576 101.58L91.447 99.885L91.8369 102.276L94.0029 103.319L91.7503 104.449L91.4903 106.927Z" fill="#E6AC4B"/>
<path d="M62.9864 106.796L64.6758 105.014L67.0584 105.405L65.9321 103.232L67.0584 101.059L64.6325 101.537L62.943 99.7546L62.5532 102.145L60.3872 103.275L62.6398 104.319L62.9864 106.796Z" fill="#E6AC4B"/>
<path d="M69.311 57.1578V61.5914H75.1591V73.3272H79.5777V61.5914H85.4258V57.1578H69.311Z" stroke="white" stroke-miterlimit="10"/>
<path d="M75.1587 52.7243V48.2908H64.8921H60.4735V52.7243L60.4302 73.2838V77.7173H64.8487H75.1154V73.2838H64.8487L64.8921 52.7243H75.1587Z" stroke="white" stroke-miterlimit="10"/>
<path d="M79.5342 73.3272V77.7608H89.8008H94.2194V73.3272L94.2627 52.7678V48.3342H89.8442H79.5775V52.7678H89.8442L89.8008 73.3272H79.5342Z" stroke="white" stroke-miterlimit="10"/>
<path d="M85.4253 57.1578H79.5771V61.5914H85.4253V57.1578Z" stroke="white" stroke-miterlimit="10"/>
<path d="M53.4994 84.2808V94.3214H50.1205V86.8453H48.3877V84.2808H53.4994Z" fill="white"/>
<path d="M64.416 92.5828H63.0731V94.3214H59.7808V92.5828H54.5825V90.4529L58.8278 84.2808H62.2934L58.5246 89.9748H59.8675V88.4535H63.0298V89.9748H64.3727V92.5828H64.416Z" fill="white"/>
<path d="M69.5708 84.2808H74.5092C77.8448 84.2808 80.1407 86.1933 80.1407 89.2794C80.1407 92.3654 77.8448 94.2779 74.5092 94.2779H69.5708V84.2808ZM74.3792 91.67C75.8088 91.67 76.7618 90.8441 76.7618 89.2794C76.7618 87.7146 75.8088 86.8887 74.3792 86.8887H72.9497V91.6265H74.3792V91.67Z" fill="white"/>
<path d="M81.397 84.2808H84.7759V94.3214H81.397V84.2808Z" fill="white"/>
<path d="M93.1795 92.5828H89.3674L88.7176 94.3214H85.2954L89.6707 84.2808H92.9629L97.3382 94.3214H93.8726L93.1795 92.5828ZM92.2698 90.1487L91.3168 87.6276L90.3638 90.1487H92.2698Z" fill="white"/>
<path d="M97.252 93.539L98.3349 91.0614C99.288 91.6265 100.544 91.9742 101.627 91.9742C102.58 91.9742 102.927 91.7569 102.927 91.4091C102.927 90.1486 97.3819 91.1483 97.3819 87.4102C97.3819 85.5412 98.9414 84.0199 102.017 84.0199C103.36 84.0199 104.746 84.3242 105.786 84.8892L104.833 87.3668C103.836 86.8452 102.927 86.6279 102.06 86.6279C101.064 86.6279 100.761 86.9321 100.761 87.2799C100.761 88.4969 106.306 87.4972 106.306 91.1918C106.306 93.0174 104.746 94.5821 101.671 94.5821C99.9377 94.5387 98.2483 94.1475 97.252 93.539Z" fill="white"/>
</g>
<defs>
<linearGradient id="paint0_linear" x1="44.0089" y1="21.7584" x2="107.986" y2="134.144" gradientUnits="userSpaceOnUse">
<stop stop-color="#F5EA85"/>
<stop offset="0.7919" stop-color="#D9C23F"/>
<stop offset="1" stop-color="#EDDE41"/>
</linearGradient>
<linearGradient id="paint1_linear" x1="0.12528" y1="77.3668" x2="153.914" y2="77.5908" gradientUnits="userSpaceOnUse">
<stop stop-color="#F7E470"/>
<stop offset="0.2792" stop-color="#F3D660"/>
<stop offset="0.6396" stop-color="#B18536"/>
<stop offset="1" stop-color="#CCA438"/>
</linearGradient>
<linearGradient id="paint2_linear" x1="46.3549" y1="19.4475" x2="105.818" y2="136.646" gradientUnits="userSpaceOnUse">
<stop stop-color="#F7E470"/>
<stop offset="0.2792" stop-color="#F3D660"/>
<stop offset="0.6396" stop-color="#B18536"/>
<stop offset="1" stop-color="#CCA438"/>
</linearGradient>
<linearGradient id="paint3_linear" x1="41.826" y1="104.554" x2="111.226" y2="52.3806" gradientUnits="userSpaceOnUse">
<stop stop-color="#F5EA85"/>
<stop offset="0.7919" stop-color="#D9C23F"/>
<stop offset="1" stop-color="#EDDE41"/>
</linearGradient>
<linearGradient id="paint4_linear" x1="17.4094" y1="113.642" x2="134.246" y2="43.3677" gradientUnits="userSpaceOnUse">
<stop stop-color="#F5EA85"/>
<stop offset="0.7919" stop-color="#D9C23F"/>
<stop offset="1" stop-color="#EDDE41"/>
</linearGradient>
<clipPath id="clip0">
<rect width="154" height="155" fill="white"/>
</clipPath>
</defs>
</svg>
