<svg width="96" height="111" viewBox="0 0 96 111" fill="none" xmlns="http://www.w3.org/2000/svg">
<g filter="url(#filter0_d)">
<g clip-path="url(#clip0)">
<path d="M91.7542 10.8667C91.7542 9.32706 90.5204 8.09032 88.9844 8.09032H87.7505C87.2721 8.09032 86.8188 8.21651 86.4411 8.41843C86.0382 8.19127 85.585 8.09032 85.1066 8.09032H83.8475C83.5202 8.09032 83.218 8.14079 82.941 8.24175C82.6641 8.14079 82.3619 8.09032 82.0345 8.09032L78.056 8.11555C77.7538 8.11555 77.4517 8.16603 77.1747 8.26699C76.8725 8.16603 76.5704 8.09032 76.243 8.09032L72.7681 8.11555C72.3904 8.11555 72.0127 8.21651 71.6602 8.36795C71.3076 8.19127 70.9047 8.11555 70.4767 8.11555H65.3398C65.0628 8.11555 64.7859 8.16603 64.5089 8.24175C64.2571 8.16603 63.9801 8.11555 63.7031 8.11555L59.7246 8.14079C59.4476 8.14079 59.1706 8.19127 58.9188 8.26699C58.5914 8.14079 58.2641 8.09032 57.9367 8.09032C57.2317 8.09032 56.5266 8.36795 55.9727 8.89798L55.5194 9.3523C55.0158 8.59511 54.1848 8.11555 53.2028 8.11555H51.9438C51.7675 8.11555 51.5912 8.14079 51.4402 8.16603C51.2639 8.14079 51.1128 8.11555 50.9366 8.11555H45.7997C45.2961 8.11555 44.8177 8.26699 44.3896 8.49415C43.9867 8.24175 43.5083 8.11555 42.9795 8.11555H41.7205C41.4938 8.11555 41.2924 8.14079 41.091 8.19127C40.8895 8.14079 40.6881 8.11555 40.4614 8.11555H39.2528C38.7743 8.11555 38.3211 8.24175 37.9182 8.44367C37.5153 8.21651 37.0872 8.11555 36.5836 8.11555H35.3246C35.1232 8.11555 34.8965 8.14079 34.6951 8.19127C34.4937 8.14079 34.2922 8.11555 34.0656 8.11555C34.0404 8.11555 32.8066 8.14079 32.8066 8.14079C32.1015 8.16603 31.4468 8.44367 30.9432 8.92322C30.4396 8.41843 29.7345 8.11555 29.0043 8.11555H27.8208C26.6625 8.11555 25.6553 8.8475 25.2524 9.85709L23.1372 7.73696C22.6084 7.20693 21.8782 6.92929 21.1731 6.92929C20.8458 6.92929 20.5184 6.97977 20.1911 7.10597L17.9248 4.8344C17.3961 4.30437 16.6658 4.02673 15.9608 4.02673C15.2557 4.02673 14.5507 4.30437 13.9967 4.8344L11.7304 7.10597C11.4283 6.97977 11.1009 6.92929 10.7484 6.92929C10.0182 6.92929 9.3131 7.23217 8.78431 7.73696L4.80578 11.7753C4.30217 12.2801 4 12.9868 4 13.744C4 14.4759 4.30217 15.1827 4.80578 15.7127L8.85985 19.7763C9.38864 20.3063 10.0937 20.5839 10.8239 20.5839C11.1513 20.5839 11.4786 20.5082 11.806 20.4073L12.9895 21.5935H9.16201C6.31661 21.5683 4 23.9156 4 26.7676V75.4549C4 78.307 6.31661 80.629 9.16201 80.629H35.5512V84.6421L30.213 87.0904C29.2309 87.5447 28.6014 88.529 28.6014 89.6143V93.0217C28.6014 93.5265 28.7273 94.006 28.9791 94.4099H26.4359V94.3846C26.4359 92.845 25.202 91.6083 23.666 91.6083H19.1335C18.9069 91.6083 18.6551 91.6335 18.4536 91.7092C18.227 91.6588 18.0004 91.6083 17.7738 91.6083H13.2413C11.7052 91.6083 10.4714 92.845 10.4714 94.3846V103.471C10.4714 105.011 11.7052 106.247 13.2413 106.247H17.7738C18.0004 106.247 18.2522 106.222 18.4536 106.146C18.6803 106.197 18.9069 106.247 19.1335 106.247H23.666C24.8243 106.247 25.8064 105.541 26.2092 104.556C26.587 104.758 27.0402 104.884 27.5186 104.884H28.8784C29.4072 104.884 29.8856 104.733 30.2885 104.48C30.7166 104.733 31.195 104.884 31.7238 104.884H33.0835C33.3605 104.884 33.6375 104.834 33.8893 104.758C34.1411 104.834 34.4181 104.884 34.6951 104.884H36.2815C36.5081 104.884 36.7347 104.859 36.9362 104.809C37.1376 104.859 37.3391 104.884 37.5405 104.884H41.519C41.7708 104.884 42.0226 104.834 42.2744 104.783C42.5011 104.859 42.7529 104.884 43.0299 104.884H44.3896C44.6666 104.884 44.9436 104.834 45.2206 104.758C45.4724 104.834 45.7494 104.884 46.0515 104.884H47.4113C47.789 104.884 48.1415 104.809 48.4689 104.682C48.7962 104.809 49.1487 104.884 49.5264 104.884H50.7351C50.9366 104.884 51.1632 104.859 51.3646 104.809C51.5661 104.859 51.7675 104.884 51.969 104.884H53.4042C53.8575 104.884 54.3107 104.758 54.7136 104.556C55.1165 104.758 55.5446 104.884 56.023 104.884H57.4835C57.7353 104.884 57.9619 104.859 58.2137 104.783C58.4907 104.884 58.7929 104.935 59.0951 104.935H60.2785C60.6311 104.935 60.9584 104.859 61.2606 104.758C61.5627 104.884 61.8901 104.935 62.2426 104.935H63.4513C64.0053 104.935 64.5341 104.758 64.9621 104.48C65.3902 104.733 65.8686 104.884 66.3974 104.884H70.3759C70.6277 104.884 70.8796 104.859 71.1062 104.783C71.3328 104.834 71.5846 104.884 71.8364 104.884H74.3796C75.1854 104.884 75.8905 104.733 76.4948 104.48C76.8473 104.632 77.2251 104.708 77.6028 104.708H82.5885C84.1245 104.708 85.3584 103.471 85.3584 101.931V100.568C85.3584 99.0287 84.1245 97.792 82.5885 97.792H78.7107C78.5848 97.0348 78.2575 96.3281 77.7035 95.7476C77.6783 95.7223 77.6531 95.6971 77.6279 95.6719C77.0488 95.0913 76.0164 94.4099 74.3293 94.4099H71.8112C71.5594 94.4099 71.3076 94.4604 71.0558 94.5108C70.8292 94.4351 70.5774 94.4099 70.3004 94.4099C70.3004 94.4099 67.8075 94.4099 66.7751 94.4099C67.0017 94.006 67.1528 93.5265 67.1528 93.0217V89.6143C67.1528 88.529 66.5233 87.5447 65.5413 87.0904L60.203 84.6421V80.629H86.5922C89.4376 80.629 91.7542 78.307 91.7542 75.4549V26.7676C91.7542 23.9156 89.4376 21.5935 86.5922 21.5935H19.0328L20.2163 20.4073C20.5184 20.5335 20.871 20.5839 21.1983 20.5839C21.9034 20.5839 22.6084 20.3063 23.1624 19.7763L25.2776 17.6561C25.6805 18.691 26.6877 19.3977 27.846 19.3977H29.105C29.8352 19.3977 30.4899 19.12 30.9684 18.6657C31.472 19.12 32.1267 19.3977 32.8317 19.3977H34.0908C34.4181 19.3977 34.7455 19.3472 35.0224 19.221C35.3246 19.322 35.6268 19.3977 35.9541 19.3977H39.8823C40.2096 19.3977 40.5118 19.3472 40.814 19.2462C41.1161 19.3472 41.4183 19.3977 41.7457 19.3977H46.6055C46.8069 19.3977 46.9832 19.3724 47.1847 19.3472C47.3609 19.3977 47.5624 19.3977 47.7638 19.3977H49.0228C49.5768 19.3977 50.0804 19.2462 50.5085 18.9686C50.9366 19.2462 51.4402 19.3977 51.9941 19.3977H53.2532C53.4294 19.3977 53.6309 19.3724 53.8071 19.3472C54.0338 19.3977 54.2604 19.4482 54.487 19.4482C55.2172 19.4482 55.9223 19.1453 56.4511 18.6405L57.1813 17.9085C57.2317 17.959 57.2821 18.0095 57.3324 18.0852L57.9367 18.6657C58.4404 19.1453 59.1454 19.4229 59.8505 19.4229H63.7786C64.4333 19.4229 65.0628 19.1958 65.5665 18.7667C66.0449 19.1705 66.6744 19.4229 67.3543 19.4229H68.6133C69.0666 19.4229 69.5198 19.2967 69.8975 19.12C70.2752 19.322 70.7033 19.4229 71.1817 19.4229H72.4407C72.9192 19.4229 73.3724 19.2967 73.7753 19.0948C74.1782 19.322 74.6063 19.4229 75.1099 19.4229H76.3437C76.6711 19.4229 76.9984 19.3724 77.2754 19.2462C77.5776 19.3472 77.8798 19.4229 78.2071 19.4229H82.0597C82.3619 19.4229 82.6641 19.3724 82.941 19.2715C83.218 19.3724 83.5202 19.4229 83.8224 19.4229H85.0814C85.5598 19.4229 86.0131 19.2967 86.416 19.0948C86.8188 19.322 87.2721 19.4229 87.7505 19.4229H88.9844C89.7146 19.4229 90.4448 19.12 90.9484 18.59C91.4772 18.06 91.7542 17.3533 91.7542 16.5961L91.729 14.8041C91.729 14.4507 91.6535 14.0973 91.5024 13.7692C91.6535 13.4159 91.729 13.0373 91.729 12.6587V10.8667H91.7542Z" fill="white"/>
<path d="M86.5924 24.3431H9.16217C7.8276 24.3431 6.77002 25.4284 6.77002 26.7409V75.4282C6.77002 76.7659 7.85278 77.8259 9.16217 77.8259H38.3213V80.4256V86.3822L31.3714 89.5624V92.9697H64.358V89.5624L57.4081 86.3822V80.4256V77.8259H86.5924C87.927 77.8259 88.9845 76.7406 88.9845 75.4282V26.7661C88.9845 25.4284 87.9018 24.3431 86.5924 24.3431ZM32.152 92.263V90.37H63.6025V92.263H32.152ZM33.8139 89.5876L38.9508 87.2403H56.8038L61.9406 89.5876H33.8139ZM56.4009 86.2307H39.3285V80.4508H56.4009V86.2307ZM56.4009 79.4413H39.3285V77.8512H56.4009V79.4413ZM87.9773 75.4534C87.9773 76.2106 87.3478 76.8416 86.5924 76.8416H57.4081H38.3213H9.16217C8.40676 76.8416 7.77724 76.2106 7.77724 75.4534V26.7661C7.77724 26.009 8.40676 25.378 9.16217 25.378H86.5924C87.3478 25.378 87.9773 26.009 87.9773 26.7661V75.4534Z" fill="#131316"/>
<path d="M10.5469 71.6675H85.2072V28.1292H10.5469V71.6675ZM11.3023 28.8863H84.4518V70.9103H11.3023V28.8863Z" fill="#131316"/>
<path d="M47.8643 75.9583C48.7682 75.9583 49.501 75.2238 49.501 74.3177C49.501 73.4116 48.7682 72.6771 47.8643 72.6771C46.9603 72.6771 46.2275 73.4116 46.2275 74.3177C46.2275 75.2238 46.9603 75.9583 47.8643 75.9583Z" fill="#131316"/>
<path d="M67.3792 37.3669C67.8073 37.3669 68.1598 37.0135 68.1598 36.5844C68.1598 36.1554 67.8073 35.802 67.3792 35.802C66.9512 35.802 66.5986 36.1554 66.5986 36.5844C66.5986 37.0135 66.9512 37.3669 67.3792 37.3669Z" fill="#131316"/>
<path d="M70.5272 37.3669C70.9553 37.3669 71.3078 37.0135 71.3078 36.5844C71.3078 36.1554 70.9553 35.802 70.5272 35.802C70.0991 35.802 69.7466 36.1554 69.7466 36.5844C69.7466 37.0135 70.0991 37.3669 70.5272 37.3669Z" fill="#131316"/>
<path d="M73.6995 37.3669C74.1307 37.3669 74.4801 37.0166 74.4801 36.5844C74.4801 36.1523 74.1307 35.802 73.6995 35.802C73.2684 35.802 72.9189 36.1523 72.9189 36.5844C72.9189 37.0166 73.2684 37.3669 73.6995 37.3669Z" fill="#131316"/>
<path d="M38.4468 33.5051H18.2017V66.4681H38.4216H39.4289H77.527V33.5051H39.454H38.4468ZM38.4468 34.5147V38.4773H19.2089V34.5147H38.4468ZM19.2089 65.4585V39.5122H38.4216V65.4585H19.2089ZM39.454 65.4585V39.5122H76.545V65.4585H39.454ZM76.545 34.5147V38.4773H39.454V34.5147H76.545Z" fill="#131316"/>
<path d="M22.105 46.2764H30.3894V43.6768H22.105V46.2764ZM22.8604 44.4339H29.634V45.5193H22.8604V44.4339Z" fill="#131316"/>
<path d="M22.105 50.9458H30.3894V48.3461H22.105V50.9458ZM22.8604 49.078H29.634V50.1633H22.8604V49.078Z" fill="#131316"/>
<path d="M22.105 55.5898H30.3894V52.9901H22.105V55.5898ZM22.8604 53.7473H29.634V54.8326H22.8604V53.7473Z" fill="#131316"/>
<path d="M22.105 60.2591H30.3894V57.6594H22.105V60.2591ZM22.8604 58.3914H29.634V59.4767H22.8604V58.3914Z" fill="#131316"/>
<path d="M68.1852 44.4844H66.8255V43.1215H65.4657V41.7585H61.3865V43.1215H60.0267V44.4844H58.667V45.8474H57.3072V44.4844H55.9475V43.1215H54.5877V41.7585H50.5085V43.1215H49.1487V44.4844H47.7889V47.2103H46.4292V49.9362H47.7889V52.6621H49.1487V54.025H50.5085V55.3879H51.8682V56.7509H53.228V58.1138H54.5877V59.4768H55.9475V60.8397H57.3072V62.2026H58.667V60.8397H60.0267V59.4768H61.3865V58.1138H62.7462V56.7509H64.106V55.3879H65.4657V54.025H66.8255V52.6621H68.1852V49.9362H69.545V47.2103H68.1852V44.4844ZM54.6632 49.078H54.2352V49.5071H53.8071V49.9362H53.379V50.3653H52.951V50.7943H52.5229V51.2234H52.0948V51.6525H52.5229V52.0816H52.951V52.5106H53.379V52.9397H53.8071V53.3688H54.2352V53.7978H54.6632V54.6308H53.8323V54.2017H53.4042V53.7726H52.9761V53.3435H52.5481V52.9145H52.12V52.4854H51.6919V52.0563H51.3394V50.7943H51.7675V50.3653H52.1955V49.9362H52.6236V49.5071H53.0517V49.078H53.4798V48.649H53.9078V48.2199H54.7388V49.078H54.6632ZM60.0771 50.3148H59.649V50.7438H59.2209V51.1729H58.7929V51.602H58.3648V52.0311H57.9367V52.4601H57.5086V52.8892H57.0806V53.3183H56.6525V54.5803H55.8216V52.9145H56.2496V52.4854H56.6777V52.0563H57.1058V51.6272H57.5338V51.1982H57.9619V50.7691H58.39V50.34H58.818V49.9109H59.2461V48.649H60.0771V50.3148ZM64.6348 51.9806H64.2067V52.4097H63.7786V52.8387H63.3505V53.2678H62.9225V53.6969H62.4944V54.126H62.0663V54.555H61.2354V53.7221H61.6634V53.2931H62.0915V52.864H62.5196V52.4349H62.9477V52.0058H63.3757V51.5768H63.8038V51.1477H63.3757V50.7186H62.9477V50.2895H62.5196V49.8605H62.0915V49.4314H61.6634V49.0023H61.2354V48.1694H62.0663V48.5985H62.4944V49.0276H62.9225V49.4566H63.3505V49.8857H63.7786V50.3148H64.2067V50.7438H64.6348V51.9806Z" fill="#4955FF"/>
<path d="M25.2524 13.7425L21.1983 17.7809L20.04 16.6199L22.9358 13.7425L20.04 10.84L21.1983 9.67896L25.2524 13.7425Z" fill="#02E7D9"/>
<path d="M11.9572 10.84L9.06145 13.7425L11.9572 16.6199L10.8241 17.7809L6.77002 13.7425L10.8241 9.67896L11.9572 10.84Z" fill="#02E7D9"/>
<path d="M17.7485 10.84L18.9068 11.9757L17.1441 13.7425L14.2484 16.6198L13.1152 15.4841L14.8527 13.7425L17.7485 10.84Z" fill="#02E7D9"/>
<path d="M57.9621 10.84L59.1204 11.9757L57.3578 13.7425L54.462 16.6198L53.3037 15.4841L55.0664 13.7425L57.9621 10.84Z" fill="#02E7D9"/>
<path d="M18.9069 9.67892L17.7486 10.8399L16.0111 9.07317L13.1153 11.9757L11.957 10.8399L16.0111 6.77637L18.9069 9.67892Z" fill="#02E7D9"/>
<path d="M20.0399 16.6198L16.011 20.6834L13.1152 17.7808L14.2484 16.6198L16.011 18.3866L18.9068 15.484L20.0399 16.6198Z" fill="#02E7D9"/>
<path d="M32.8571 16.5946V12.9854L31.5226 14.9541L30.5153 14.9793L29.1052 12.9601V16.5946H27.8462V10.8652H29.0297L30.9938 13.5154L32.9075 10.8905L34.091 10.8652V16.5946H32.8571Z" fill="#131316"/>
<path d="M35.9796 16.5946L35.3753 16.0141L35.3501 10.8652H36.6091V15.3326H39.2531V10.8652H40.5121V15.9636L39.9078 16.5946H35.9796Z" fill="#131316"/>
<path d="M41.771 16.5946V10.8652H43.0048V15.3326H46.6308V16.5946H41.771Z" fill="#131316"/>
<path d="M47.7641 16.5946V12.1272H45.8252V10.8652H50.962V12.1272H49.0231V16.5946H47.7641Z" fill="#131316"/>
<path d="M53.2283 10.8652H51.9692V16.5946H53.2283V10.8652Z" fill="#131316"/>
<path d="M59.8253 16.5946L59.221 16.0141L59.1958 14.7774H60.4548V15.3326H63.0988V14.3735H59.8253L59.221 13.9445L59.1958 11.4962L59.775 10.8905L63.7283 10.8652L64.3075 11.4457L64.3326 12.6825H63.0988V12.1272H60.4548V13.1116H63.7283L64.3075 13.6921L64.3326 15.9636L63.7535 16.5946H59.8253Z" fill="#131316"/>
<path d="M67.3041 16.5946V12.1272H65.3652V10.8652H70.5021V12.1272H68.5632V16.5946H67.3041Z" fill="#131316"/>
<path d="M75.0094 16.5946V14.9288H72.3655V16.5946H71.1064V12.6067L72.7935 10.8652L76.2433 10.84V16.5694H75.0094V16.5946ZM75.0094 13.6668V12.1272H73.4231L72.3403 13.2377L72.3655 13.692H75.0094V13.6668Z" fill="#131316"/>
<path d="M78.1317 16.5946L77.5273 16.0141V11.4962L78.0813 10.8905L82.0347 10.8652L82.639 11.4457L82.6642 12.6825H81.4051V12.1272H78.7612V15.3326H81.4051V14.7774H82.6642V15.9636L82.0598 16.5946H78.1317Z" fill="#131316"/>
<path d="M87.7255 16.5946V15.4084L86.6427 14.3483L85.0815 14.3735V16.5946H83.8477V10.8652H85.0815V13.1116H86.6931L87.7506 12.001L87.7255 10.8652H88.9845V12.6068L87.9017 13.7426L88.9593 14.8026L88.9845 16.5946H87.7255Z" fill="#131316"/>
<path d="M17.7483 95.7461V94.3832H14.5756H13.2158V95.7461V102.107V103.469H14.5756H17.7483V102.107H14.5756V95.7461H17.7483Z" fill="#4955FF"/>
<path d="M19.1333 102.107V103.469H22.2809H23.6658V102.107V95.7461V94.3832H22.2809H19.1333V95.7461H22.2809V102.107H19.1333Z" fill="#4955FF"/>
<path d="M20.9211 97.1343H19.1333V98.4972H20.9211V97.1343Z" fill="#00D34D"/>
<path d="M15.9609 97.1343V98.4972H17.7488V102.106H19.1337V97.1343H15.9609Z" fill="#4955FF"/>
<path d="M31.7236 97.1848H34.0654C34.8208 97.1848 35.3496 97.3867 35.677 97.7148C35.954 97.9925 36.1302 98.3711 36.1302 98.8759V98.9011C36.1302 99.6583 35.7273 100.138 35.123 100.415L36.2813 102.132H34.6949L33.7129 100.643H33.6877H33.1086V102.132H31.7488L31.7236 97.1848ZM33.9899 99.5321C34.4431 99.5321 34.7201 99.3049 34.7201 98.9516V98.9263C34.7201 98.5225 34.4431 98.3458 33.9899 98.3458H33.0834V99.5321H33.9899Z" fill="#4955FF"/>
<path d="M37.5405 97.1848H41.4939V98.3458H38.9003V99.0778H41.2673V100.163H38.9003V100.946H41.5442V102.107H37.5657V97.1848H37.5405Z" fill="#4955FF"/>
<path d="M43.0298 97.1848H44.3895V102.107H43.0298V97.1848Z" fill="#4955FF"/>
<path d="M46.0518 97.1848H47.336L49.3504 99.7845V97.1848H50.7102V102.107H49.5015L47.4115 99.4059V102.107H46.0518V97.1848Z" fill="#4955FF"/>
<path d="M54.0338 97.1343H55.3432L57.4332 102.106H55.9727L55.6202 101.223H53.7317L53.3791 102.106H51.9438L54.0338 97.1343ZM55.2173 100.163L54.6633 98.7496L54.1094 100.163H55.2173Z" fill="#4955FF"/>
<path d="M66.3218 97.1848H70.2751V98.3458H67.6815V99.0778H70.0485V100.163H67.6815V100.946H70.3255V102.107H66.347L66.3218 97.1848Z" fill="#4955FF"/>
<path d="M71.7607 97.1848H74.2788C74.8831 97.1848 75.3364 97.3362 75.6134 97.6391C75.8148 97.841 75.9407 98.0934 75.9407 98.4216V98.4468C75.9407 99.0273 75.6134 99.3554 75.1853 99.5573C75.7896 99.7593 76.1673 100.087 76.1673 100.769V100.794C76.1673 101.627 75.4623 102.157 74.304 102.157H71.7607V97.1848ZM73.9514 99.1535C74.3543 99.1535 74.6061 99.0021 74.6061 98.7244V98.6992C74.6061 98.4216 74.4047 98.2701 74.0018 98.2701H73.1205V99.1283H73.9514V99.1535ZM74.1781 101.021C74.581 101.021 74.8328 100.87 74.8328 100.567V100.542C74.8328 100.264 74.6313 100.087 74.1781 100.087H73.1457V100.996H74.1781V101.021Z" fill="#4955FF"/>
<path d="M82.538 100.567H77.5522V101.93H82.538V100.567Z" fill="#00D34D"/>
<path d="M30.7167 97.1848H28.9037H25.731V98.5478H27.5188V102.107H28.9037V98.5478H30.7167V97.1848Z" fill="#4955FF"/>
<path d="M63.6273 97.1848L62.7712 100.037L61.8143 97.1595H60.6308L59.6991 99.9359L59.0948 98.0682L58.8178 97.1848H58.7926H57.4077L59.0445 102.157H60.2279L60.3287 101.829V101.804L61.21 99.3049L62.192 102.157H63.4007L65.0374 97.1848H63.6273Z" fill="#4955FF"/>
</g>
</g>
<defs>
<filter id="filter0_d" x="0" y="0" width="95.7544" height="110.246" filterUnits="userSpaceOnUse" color-interpolation-filters="sRGB">
<feFlood flood-opacity="0" result="BackgroundImageFix"/>
<feColorMatrix in="SourceAlpha" type="matrix" values="0 0 0 0 0 0 0 0 0 0 0 0 0 0 0 0 0 0 127 0" result="hardAlpha"/>
<feOffset/>
<feGaussianBlur stdDeviation="2"/>
<feColorMatrix type="matrix" values="0 0 0 0 0 0 0 0 0 0 0 0 0 0 0 0 0 0 0.2 0"/>
<feBlend mode="normal" in2="BackgroundImageFix" result="effect1_dropShadow"/>
<feBlend mode="normal" in="SourceGraphic" in2="effect1_dropShadow" result="shape"/>
</filter>
<clipPath id="clip0">
<rect width="87.7542" height="102.246" fill="white" transform="translate(4 4)"/>
</clipPath>
</defs>
</svg>
