<svg width="31" height="22" viewBox="0 0 31 22" fill="none" xmlns="http://www.w3.org/2000/svg">
<path d="M-0.0001297 4.38284H1.81628V1.7547H4.54492V0H-0.0001297V4.38284Z" fill="#2C3A57"/>
<path d="M29.1836 4.38284H31V0H26.4549V1.7547H29.1836V4.38284Z" fill="#2C3A57"/>
<path d="M-0.0001297 22H4.54492V20.2453H1.81628V17.6094H-0.0001297V22Z" fill="#2C3A57"/>
<path d="M26.4549 22H31V17.6171H29.1836V20.2531H26.4549V22Z" fill="#2C3A57"/>
<path d="M25.2925 3.38458H27.1089V18.6154H25.2925V3.38458Z" fill="#2C3A57"/>
<path d="M21.7241 3.38458H23.5405V15.106H21.7241V3.38458Z" fill="#2C3A57"/>
<path d="M18.1558 3.38458H19.9722V15.106H18.1558V3.38458Z" fill="#2C3A57"/>
<path d="M14.5957 3.38458H16.4121V18.6154H14.5957V3.38458Z" fill="#2C3A57"/>
<path d="M11.0278 3.38458H12.8442V18.6154H11.0278V3.38458Z" fill="#2C3A57"/>
<path d="M3.89111 3.38458H5.70752V18.6154H3.89111V3.38458Z" fill="#2C3A57"/>
<path d="M7.45947 3.38458H9.27588V15.106H7.45947V3.38458Z" fill="#2C3A57"/>
<path d="M21.7241 16.8607H23.5405V18.6154H21.7241V16.8607Z" fill="#2C3A57"/>
<path d="M18.1558 16.8607H19.9722V18.6154H18.1558V16.8607Z" fill="#2C3A57"/>
<path d="M7.45947 16.8607H9.27588V18.6154H7.45947V16.8607Z" fill="#2C3A57"/>
</svg>
