<svg width="267" height="36" viewBox="0 0 267 36" fill="none" xmlns="http://www.w3.org/2000/svg">
<g clip-path="url(#clip0_167:3689)">
<path d="M17.4705 5.79323V0.571289H5.28713H0V5.79323V29.8596V35.0815H5.28713H17.4705V29.8596H5.28713V5.79323H17.4705Z" fill="#F7F7F8"/>
<path d="M22.7576 29.8596V35.0815H34.941H40.2281V29.8596V5.79323V0.571289H34.941H22.7576V5.79323H34.941V29.8596H22.7576Z" fill="#F7F7F8"/>
<path d="M29.6539 11.0151H22.7576V16.2371H29.6539V11.0151Z" fill="#48D359"/>
<path d="M10.5743 11.0151V16.1803H17.4705V29.8595H22.7576V11.0151H10.5743Z" fill="#F7F7F8"/>
<path d="M71.3188 11.1855H80.2839C83.2148 11.1855 85.2262 11.9234 86.4905 13.2289C87.5824 14.3074 88.2146 15.7264 88.2146 17.5994V17.6562C88.2146 20.551 86.7204 22.3673 84.3067 23.389L88.7893 29.9164H82.755L78.9046 24.2404H78.8472H76.6059V29.9164H71.3762L71.3188 11.1855ZM80.054 20.1537C81.8355 20.1537 82.87 19.3023 82.87 17.94V17.8832C82.87 16.4075 81.7781 15.6696 79.9965 15.6696H76.5484V20.1537H80.054Z" fill="#F7F7F8"/>
<path d="M93.7316 11.1855H108.961V15.6128H98.9613V18.4509H108.041V22.5376H98.9613V25.4891H109.076V29.9164H93.7316V11.1855Z" fill="#F7F7F8"/>
<path d="M114.823 11.1855H120.11V29.9164H114.823V11.1855Z" fill="#F7F7F8"/>
<path d="M126.489 11.1855H131.431L139.189 21.0618V11.1855H144.419V29.9164H139.822L131.776 19.6428V29.9164H126.546V11.1855H126.489Z" fill="#F7F7F8"/>
<path d="M157.235 11.0718H162.292L170.337 29.9162H164.706L163.326 26.5673H156.028L154.706 29.9162H149.189L157.235 11.0718ZM161.832 22.5373L159.706 17.2019L157.579 22.5373H161.832Z" fill="#F7F7F8"/>
<path d="M204.531 11.1855H219.761V15.6128H209.761V18.4509H218.841V22.5376H209.761V25.4891H219.933V29.9164H204.589V11.1855H204.531Z" fill="#F7F7F8"/>
<path d="M225.565 11.1855H235.277C237.633 11.1855 239.358 11.8099 240.449 12.8884C241.197 13.683 241.656 14.6479 241.656 15.8966C241.656 18.0535 240.449 19.359 238.725 20.0969C241.024 20.8348 242.461 22.1403 242.461 24.6377V24.6945C242.461 27.873 239.817 29.8596 235.277 29.8596H225.508L225.565 11.1855ZM234.013 18.6779C235.565 18.6779 236.484 18.1103 236.484 17.0318V16.9751C236.484 15.9534 235.68 15.329 234.128 15.329H230.737V18.6211H234.013V18.6779ZM234.76 25.7729C236.312 25.7729 237.289 25.1486 237.289 24.0133V23.9566C237.289 22.9349 236.484 22.2538 234.76 22.2538H230.737V25.7162H234.76V25.7729Z" fill="#F7F7F8"/>
<path d="M267.057 24.0132H247.863V29.2351H267.057V24.0132Z" fill="#48D359"/>
<path d="M67.3534 11.1855H60.3997H48.2163V16.4075H55.1126V29.8596H60.3997V16.4075H67.3534V11.1855Z" fill="#F7F7F8"/>
<path d="M194.187 11.1852L190.854 22.0264L187.176 11.1284H182.636L179.073 21.6858L176.717 14.534L175.682 11.1852H175.625H170.223L176.487 30.0863H181.084L181.429 28.7808H181.486V28.7241L184.82 19.3019L188.67 30.0863H193.268L199.589 11.1852H194.187Z" fill="#F7F7F8"/>
</g>
<defs>
<clipPath id="clip0_167:3689">
<rect width="267" height="34.5102" fill="white" transform="translate(0 0.571289)"/>
</clipPath>
</defs>
</svg>
