<svg width="52" height="52" viewBox="0 0 52 52" fill="none" xmlns="http://www.w3.org/2000/svg">
<path d="M18.1395 52.0003C17.8171 52.0003 17.5147 51.8793 17.2829 51.6475L13.2015 47.5662H7.25581C3.25504 47.5662 0 44.3111 0 40.3103V24.791C0 20.7902 3.25504 17.5352 7.25581 17.5352H17.4341C18.0992 17.5352 18.6434 18.0793 18.6434 18.7445C18.6434 19.4096 18.0992 19.9538 17.4341 19.9538H7.25581C4.58527 19.9538 2.4186 22.1204 2.4186 24.791V40.3103C2.4186 42.9809 4.58527 45.1475 7.25581 45.1475H13.8062C14.2698 45.1475 14.7031 45.4196 14.8946 45.8328L16.9302 47.8685V46.3468C16.9302 45.6817 17.4744 45.1375 18.1395 45.1375H29.0233C31.6938 45.1375 33.8605 42.9708 33.8605 40.3003V33.3468C33.8605 32.6817 34.4047 32.1375 35.0698 32.1375C35.7349 32.1375 36.2791 32.6817 36.2791 33.3468V40.3003C36.2791 44.301 33.024 47.5561 29.0233 47.5561H19.3488V50.7809C19.3488 51.2747 19.0566 51.708 18.6031 51.8995C18.4519 51.97 18.3008 52.0003 18.1395 52.0003Z" fill="white"/>
<path d="M45.3489 33.286C45.0264 33.286 44.724 33.1651 44.4923 32.9333L40.8039 29.245C39.6147 29.5473 38.3853 29.6985 37.1458 29.6985H34.5961C26.4132 29.6985 19.752 23.0372 19.752 14.8543C19.752 6.66124 26.4132 0 34.5961 0H37.1458C45.3388 0 52 6.66124 52 14.8442C52 17.2124 51.4558 19.4798 50.3876 21.586C49.4605 23.4 48.1403 25.0426 46.5582 26.3326V32.0667C46.5582 32.5605 46.2659 32.9938 45.8124 33.1853C45.6613 33.2457 45.5101 33.286 45.3489 33.286ZM41.1667 26.6752C41.4892 26.6752 41.7915 26.7961 42.0233 27.0279L44.1496 29.1442V25.738C44.1496 25.3651 44.331 25.0023 44.6333 24.7705C47.7876 22.3922 49.5915 18.7744 49.5915 14.8341C49.5814 7.99147 44.0085 2.4186 37.1558 2.4186H34.6062C27.7434 2.4186 22.1706 7.99147 22.1706 14.8442C22.1706 21.6969 27.7434 27.2698 34.5961 27.2698H37.1458C38.3954 27.2698 39.6248 27.0884 40.8039 26.7256C40.9248 26.6953 41.0457 26.6752 41.1667 26.6752Z" fill="white"/>
<path d="M36.158 19.2277C35.4929 19.2277 34.9487 18.6835 34.9487 18.0184V15.5998C34.9487 14.6021 35.634 13.7556 36.6115 13.5339C37.6092 13.3122 38.2743 12.4052 38.2038 11.3874C38.1332 10.3796 37.3169 9.56337 36.3092 9.49282C36.2588 9.49282 36.2084 9.48275 36.158 9.48275C35.634 9.48275 35.1402 9.67422 34.7572 10.037C34.334 10.43 34.1022 10.9641 34.1022 11.5386C34.1022 12.2037 33.558 12.7479 32.8929 12.7479C32.2278 12.7479 31.6836 12.2037 31.6836 11.5386C31.6836 10.3091 32.1975 9.10988 33.1045 8.27344C33.9309 7.49747 35.0193 7.07422 36.1479 7.07422C36.2487 7.07422 36.3596 7.07422 36.4704 7.0843C38.6774 7.23546 40.4611 9.01918 40.6123 11.2262C40.7634 13.3626 39.403 15.2773 37.3673 15.8417V18.0285C37.3673 18.351 37.2464 18.6533 37.0146 18.8851C36.7828 19.1169 36.4805 19.2277 36.158 19.2277Z" fill="white"/>
<path d="M36.158 23.2086C35.8356 23.2086 35.5231 23.0776 35.3014 22.8559C35.0797 22.6342 34.9487 22.3218 34.9487 21.9993C34.9487 21.6769 35.0797 21.3745 35.3014 21.1428C35.5231 20.921 35.8356 20.79 36.158 20.79C36.4805 20.79 36.7828 20.921 37.0146 21.1428C37.2363 21.3645 37.3673 21.6769 37.3673 21.9993C37.3673 22.3218 37.2363 22.6241 37.0146 22.8559C36.7929 23.0877 36.4805 23.2086 36.158 23.2086Z" fill="white"/>
<path d="M6.6512 33.6588C5.98608 33.6588 5.44189 33.1147 5.44189 32.4495C5.44189 31.7844 5.98608 31.2402 6.6512 31.2402H27.9148C28.5799 31.2402 29.1241 31.7844 29.1241 32.4495C29.1241 33.1147 28.5799 33.6588 27.9148 33.6588H6.6512Z" fill="white"/>
<path d="M27.9149 39.3024C27.5924 39.3024 27.2901 39.1714 27.0583 38.9497C26.8366 38.728 26.7056 38.4156 26.7056 38.0931C26.7056 37.7706 26.8366 37.4683 27.0583 37.2365C27.28 37.0148 27.5924 36.8838 27.9149 36.8838C28.2374 36.8838 28.5397 37.0148 28.7715 37.2365C28.9932 37.4582 29.1242 37.7706 29.1242 38.0931C29.1242 38.4156 28.9932 38.7179 28.7715 38.9497C28.5397 39.1714 28.2374 39.3024 27.9149 39.3024Z" fill="white"/>
<path d="M6.6512 39.3024C5.98608 39.3024 5.44189 38.7582 5.44189 38.0931C5.44189 37.428 5.98608 36.8838 6.6512 36.8838H23.9543C24.6194 36.8838 25.1636 37.428 25.1636 38.0931C25.1636 38.7582 24.6194 39.3024 23.9543 39.3024H6.6512Z" fill="white"/>
<path d="M6.6512 28.0153C5.98608 28.0153 5.44189 27.4711 5.44189 26.806C5.44189 26.1409 5.98608 25.5967 6.6512 25.5967H21.3644C22.0295 25.5967 22.5737 26.1409 22.5737 26.806C22.5737 27.4711 22.0295 28.0153 21.3644 28.0153H6.6512Z" fill="white"/>
</svg>
