<svg width="28" height="28" viewBox="0 0 28 28" fill="none" xmlns="http://www.w3.org/2000/svg">
<path d="M14 28C6.28009 28 0 21.7199 0 14C0 6.28009 6.28009 0 14 0C21.7199 0 28 6.28009 28 14C28 21.7199 21.7199 28 14 28ZM14 1.75C7.24503 1.75 1.75 7.24503 1.75 14C1.75 20.755 7.24503 26.25 14 26.25C20.755 26.25 26.25 20.755 26.25 14C26.25 7.24503 20.755 1.75 14 1.75Z" fill="#48D359"/>
<path d="M20.125 14.875H7.875C7.392 14.875 7 14.483 7 14C7 13.517 7.392 13.125 7.875 13.125H20.125C20.608 13.125 21 13.517 21 14C21 14.483 20.608 14.875 20.125 14.875Z" fill="white"/>
<path d="M14 21C13.517 21 13.125 20.608 13.125 20.125V7.875C13.125 7.392 13.517 7 14 7C14.483 7 14.875 7.392 14.875 7.875V20.125C14.875 20.608 14.483 21 14 21Z" fill="white"/>
</svg>
