<svg width="356" height="357" viewBox="0 0 356 357" fill="none" xmlns="http://www.w3.org/2000/svg">
<g clip-path="url(#clip0_453:251)">
<path d="M175 331.2C258.6 331.3 326.4 263.7 326.5 180.2C326.7 96.6003 259 28.8003 175.5 28.7003C91.9 28.6003 24.1 96.2003 24 179.7C23.8 263.2 91.5 331 175 331.2Z" fill="url(#paint0_linear_453:251)"/>
<path d="M178.5 356.3L163.4 340.7L145.8 353.2L133.8 335.3L114.2 344.5L105.7 324.5L84.5998 329.8L79.9998 308.8L58.3998 310.2L57.6998 288.6L35.9998 286L39.3998 264.7L18.6998 258.2L25.7998 237.7L6.7998 227.7L17.5998 208.9L0.599805 195.4L14.4998 179L0.299805 162.5L17.0998 149L6.1998 130.3L25.2998 120L17.8998 99.5002L38.6998 93.0002L35.1998 71.6002L56.6998 68.9002L57.2998 47.3002L78.8998 48.6002L83.3998 27.3002L104.5 32.5002L112.9 12.5002L132.5 21.4002L144.4 3.3002L162 15.9002L177 0.200195L192.1 15.8002L209.7 3.1002L221.7 21.2002L241.3 12.0002L249.8 32.0002L270.9 26.5002L275.5 47.8002L297.1 46.4002L297.8 68.0002L319.4 70.4002L316 91.8002L336.7 98.3002L329.5 118.8L348.7 128.8L337.9 147.6L354.9 161.1L341 177.6L355.2 193.9L338.3 207.6L349.2 226.3L330.1 236.6L337.5 256.9L316.8 263.5L320.3 284.9L298.8 287.6L298.2 309.2L276.6 307.9L272.1 329.2L251 324L242.6 344L223 334.9L211.3 353L193.6 340.6L178.5 356.3Z" fill="url(#paint1_linear_453:251)"/>
<path d="M175 331C258.6 331.1 326.4 263.5 326.5 180C326.7 96.5001 259 28.7001 175.5 28.5001C91.9 28.4001 24.1 96.0001 23.9 179.5C23.8 263.1 91.5 330.9 175 331Z" fill="url(#paint2_linear_453:251)"/>
<path d="M77.8999 184.2C77.9999 127.7 124 81.9002 180.6 82.0002C237.2 82.1002 283 128 282.9 184.6C282.8 241.2 236.9 286.9 180.3 286.9C123.7 286.7 77.8999 240.8 77.8999 184.2ZM112.3 116.1C94.6999 133.6 83.8999 157.7 83.8999 184.3C83.8999 210.9 94.5999 235.2 112.1 252.6C129.6 270.2 153.7 280.9 180.3 281C206.9 281 231.2 270.4 248.6 252.8C266.2 235.3 277 211.2 277 184.6C277 158 266.3 133.7 248.8 116.3C231.3 98.7002 207.2 88.0002 180.6 87.9002C154 87.8002 129.9 98.5002 112.3 116.1Z" fill="#80612E"/>
<path d="M74.5998 179.6C74.6998 123 120.6 77.2998 177.2 77.2998C233.8 77.3998 279.6 123.3 279.5 179.9C279.4 236.5 233.5 282.2 176.9 282.2C120.3 282.3 74.4998 236.2 74.5998 179.6ZM108.9 111.4C91.2998 129 80.5998 153 80.4998 179.6C80.4998 206.2 91.1998 230.5 108.7 247.9C126.2 265.5 150.3 276.2 176.9 276.3C203.5 276.3 227.8 265.7 245.2 248.1C262.6 230.6 273.6 206.5 273.6 179.9C273.6 153.3 262.9 129 245.4 111.6C227.9 93.9998 203.8 83.2998 177.2 83.1998C150.6 83.1998 126.4 94.0998 108.9 111.4Z" fill="url(#paint3_linear_453:251)"/>
<path d="M247.7 113.9C247.3 113.5 247 113.2 246.6 112.8C263.4 130.2 273.7 153.9 273.7 179.9C273.7 206.5 262.9 230.7 245.3 248.1C227.7 265.6 203.6 276.3 177 276.3C150.9 276.3 127.3 265.9 109.9 249C110.3 249.4 110.6 249.7 111 250.1C128.5 267.7 152.6 278.4 179.2 278.5C205.8 278.5 230.1 267.9 247.5 250.3C265.1 232.8 275.9 208.7 275.9 182.1C275.9 155.5 265.2 131.3 247.7 113.9ZM179.5 79.5996C207.2 79.5996 232.4 90.7996 250.9 108.7C232.2 89.3996 206.2 77.3996 177.3 77.3996C120.6 77.2996 74.7001 123 74.6001 179.6C74.6001 208.4 86.4001 234.5 105.6 253.2C87.7001 234.7 76.6001 209.5 76.7001 181.8C76.9001 125.3 122.9 79.4996 179.5 79.5996Z" fill="white"/>
<path d="M50.3999 202.7C54.9999 201.4 59.4999 204.2 60.8999 209.4C62.1999 214.4 59.7999 219 55.0999 220.3C50.4999 221.6 45.9999 218.8 44.5999 213.8C43.0999 208.6 45.4999 204 50.3999 202.7ZM53.6999 214.9C56.0999 214.2 57.1999 212.3 56.6999 210.5C56.0999 208.7 54.2999 207.4 51.8999 208.1C49.4999 208.8 48.3999 210.7 48.8999 212.5C49.1999 214.5 51.0999 215.6 53.6999 214.9Z" fill="#212FB5"/>
<path d="M54.8999 222.5L62.9999 219L65.1999 224L57.1999 227.5C54.9999 228.4 54.3999 229.7 55.1999 231C55.7999 232.3 56.9999 232.9 59.2999 231.9L67.2999 228.4L69.2999 233.2L61.1999 236.7C56.7999 238.5 53.0999 237.1 51.1999 232.6C49.1999 228.2 50.4999 224.3 54.8999 222.5Z" fill="#212FB5"/>
<path d="M60.5 247.8L64.8 247.1C65 248.8 65.5 250.8 66.5 252.3C67.4 253.6 68 253.8 68.3 253.6C70 252.5 63.7 246 68.7 242.7C71.1 241 74.6 241.8 77.4 245.9C78.5 247.8 79.4 249.8 79.6 251.6L75.5 252.5C75.3 250.8 74.8 249.4 74 248.1C73.1 246.8 72.5 246.6 72 247C70.3 248.1 76.6 254.6 71.8 257.7C69.4 259.4 65.9 258.6 63.1 254.5C61.6 252.2 60.6 249.7 60.5 247.8Z" fill="#212FB5"/>
<path d="M81.0002 270L77.9002 272.6L69.2002 262.4L81.4002 252.1L89.9002 261.9L86.8002 264.5L81.8002 258.6L80.3002 259.9L84.7002 265.1L81.7002 267.7L77.3002 262.5L75.6002 263.8L81.0002 270Z" fill="#212FB5"/>
<path d="M84.8 269.7L90.7 263.1L94.8 266.6L89.1 273.1C87.4 274.9 87.6 276.2 88.7 277.2C89.8 278.1 91.1 278.1 92.8 276.3L98.5 269.8L102.4 273.3L96.5 279.9C93.3 283.4 89.3 283.6 85.6 280.3C82.1 277.2 81.7 273.3 84.8 269.7Z" fill="#212FB5"/>
<path d="M108.9 278.4L115.7 282.5C120.3 285.3 122 289.7 119.4 294C116.8 298.2 112.2 299 107.6 296.4L100.8 292.3L108.9 278.4ZM109.4 292.4C111.4 293.5 113.5 293.1 114.6 291.1C115.9 289.1 115.2 287 113.3 285.9L111.3 284.8L107.4 291.3L109.4 292.4Z" fill="#212FB5"/>
<path d="M124.8 287.3L129.8 289.5L123.1 304.1L118.1 301.9L124.8 287.3Z" fill="#212FB5"/>
<path d="M146.4 295.4L141.4 310.6L137.1 309.1L133.6 300.2L131.4 307L126.4 305.3L131.4 290.1L135.7 291.6L139.2 300.5L141.4 293.7L146.4 295.4Z" fill="#212FB5"/>
<path d="M163.6 298.6L160.8 314.3L155.4 313.4L156.5 307.7L151.5 306.8L150.4 312.5L145 311.6L147.8 295.9L153.2 296.8L152.3 302.3L157.3 303.2L158.2 297.7L163.6 298.6Z" fill="#212FB5"/>
<path d="M178.2 311.2L178 315.3L164.7 314.7L165.3 298.8L178.2 299.4L178 303.5L170.2 303.1V304.9L177 305.3L176.8 309.2L170 308.8L169.8 310.8L178.2 311.2Z" fill="#212FB5"/>
<path d="M180.1 299.2L185.5 299L186.2 315.1L180.8 315.3L180.1 299.2Z" fill="#212FB5"/>
<path d="M196 309.7L194.5 309.9L195 314L189.6 314.7L187.2 298.8L194.8 297.7C199.2 297.2 202.4 299 202.9 302.7C203.3 304.9 202.3 307 200.7 308.1L204.8 312.5L199.1 313.4L196 309.7ZM195.4 302L193.4 302.4L194 306.1L196 305.7C197.5 305.5 198 304.6 197.9 303.5C197.6 302.4 196.9 301.8 195.4 302Z" fill="#212FB5"/>
<path d="M205.2 304.4C203.7 299.8 206.5 295.3 211.5 293.9C216.5 292.4 221.1 294.7 222.6 299.3C224.1 303.9 221.3 308.4 216.3 309.8C211.3 311.4 206.5 309 205.2 304.4ZM217.3 300.9C216.6 298.5 214.7 297.6 212.7 298.1C210.8 298.7 209.7 300.5 210.5 302.9C211.2 305.3 213.3 306.2 215.1 305.7C216.9 305.2 218 303.3 217.3 300.9Z" fill="#212FB5"/>
<path d="M227.3 288.5L234.3 284.8C238.9 282.2 243.7 283.2 246.1 287.6C248.5 292 246.6 296.5 242 298.9L235 302.6L227.3 288.5ZM239.5 295.4C241.5 294.3 242.3 292.4 241 290.2C239.9 288 237.9 287.6 235.8 288.7L233.8 289.8L237.5 296.5L239.5 295.4Z" fill="#212FB5"/>
<path d="M260.8 281.7L263.2 285L252.5 292.9L243.1 279.9L253.7 272.2L256.1 275.5L249.8 280.1L250.9 281.6L256.5 277.5L258.7 280.6L253.1 284.7L254.4 286.4L260.8 281.7Z" fill="#212FB5"/>
<path d="M271.5 254.6L278.5 270.5L274.8 274.4L258.5 268.3L262.6 264.1L272 267.8L267.9 258.6L271.5 254.6Z" fill="#212FB5"/>
<path d="M277.3 260.1C273.4 257.3 272.7 252.1 275.7 247.9C278.7 243.7 283.8 242.6 287.7 245.3C291.6 248.1 292.3 253.3 289.3 257.5C286.3 261.8 281.1 262.9 277.3 260.1ZM284.5 249.8C282.5 248.3 280.2 248.9 279.1 250.3C278 252 278.2 254.2 280.2 255.5C282.2 257 284.5 256.4 285.6 255C286.9 253.5 286.5 251.3 284.5 249.8Z" fill="#212FB5"/>
<path d="M281.5 239.6L284.1 234.8L294.6 240.4L297.9 233.9L301.6 235.9L295.7 247.2L281.5 239.6Z" fill="#212FB5"/>
<path d="M292.3 227.4L290.6 231.8L286.7 230.3L292.3 216.6L296.2 218.1L294.5 222.5L305.4 227L303.4 232L292.3 227.4Z" fill="#212FB5"/>
<path d="M307.7 209.3L306.2 215.2L308.6 216.9L307.3 222.3L293.6 211.6L294.9 206.4L312.1 203.7L310.6 209.1L307.7 209.3ZM303.4 209.9L299.1 210.4L302.6 213L303.4 209.9Z" fill="#212FB5"/>
<path d="M60.1998 169.4L56.0998 166.6C57.3998 165.1 58.4998 162.9 58.6998 161.1C59.0998 159.4 58.6998 158.7 58.0998 158.7C55.8998 158.3 55.8998 168.5 49.1998 167.2C45.8998 166.6 43.6998 163.3 44.7998 157.8C45.1998 155.4 46.0998 153 47.5998 151.3L51.6998 153.9C50.3998 155.6 49.7998 157 49.4998 158.5C49.0998 160.2 49.4998 160.9 50.1998 161.1C52.3998 161.5 52.1998 151.3 58.8998 152.6C62.1998 153.2 64.3998 156.5 63.2998 162C62.7998 165 61.4998 167.8 60.1998 169.4Z" fill="#212FB5"/>
<path d="M65.7998 139.9L63.5998 146.4L66.1998 148.6L64.1998 154.5L49.7998 141.2L51.7998 135.5L71.1998 133.9L69.1998 139.8L65.7998 139.9ZM61.1998 140L56.3998 140.2L60.0998 143.3L61.1998 140Z" fill="#212FB5"/>
<path d="M61.2 124.9L58.8 129.5L54.5 127.3L62.3 112.5L66.6 114.7L64.2 119.3L76 125.4L73 130.9L61.2 124.9Z" fill="#212FB5"/>
<path d="M64.2002 110.1L67.5002 105.1L82.5002 115.1L79.2002 120.1L64.2002 110.1Z" fill="#212FB5"/>
<path d="M81.9 112.9L79.7 108.6C81.6 107.9 83.6 106.6 84.7 105.1C85.8 103.8 86 103.1 85.4 102.7C83.7 101.2 78.7 110.1 73.6 105.8C71 103.6 70.6 99.7002 74.4 95.4002C75.9 93.6002 77.9 91.9002 80 91.2002L82.4 95.3002C80.5 96.0002 79.3 97.1002 78.1 98.3002C77 99.6002 77 100.3 77.5 100.9C79.2 102.2 84.2 93.5002 89.2 97.8002C91.8 99.8002 92.2 103.9 88.4 108.2C86.6 110.3 84 112.1 81.9 112.9Z" fill="#212FB5"/>
<path d="M89.6998 86.5L91.6998 88.7L97.2998 83.7L100.4 87L94.7998 92L98.6998 96.3L94.2998 100.4L82.2998 87.3L92.9998 77.5L96.0998 80.8L89.6998 86.5Z" fill="#212FB5"/>
<path d="M114.2 80.8L108.5 84.7L109.2 88L104 91.5L100.5 72.3L105.5 69L122.1 79.6L116.9 83.1L114.2 80.8ZM110.3 78L106.2 75.2L107.3 80L110.3 78Z" fill="#212FB5"/>
<path d="M131.8 67.6996L136.8 69.1996C136.2 71.7996 134.4 73.9996 131.6 75.4996L131.8 76.3996C133.3 75.7996 134.2 76.5996 134.6 77.2996C135.3 78.7996 134.2 80.5996 131.8 81.6996C131.1 82.0996 129.9 82.2996 129.2 82.2996L129 79.9996C129.4 79.9996 129.9 79.7996 130.5 79.5996C131.2 79.1996 131.4 78.8996 131.4 78.4996C131.2 78.0996 130.8 78.0996 130.3 78.4996L129.4 78.8996L128.8 76.4996C124.2 77.5996 119.9 75.6996 117.9 71.2996C115.5 66.2996 117.7 60.8996 123.1 58.5996C126.2 57.0996 129.4 57.0996 132 58.3996L130 62.9996C128.5 62.2996 127 62.0996 125.6 62.7996C123.4 63.8996 122.5 66.0996 123.7 68.6996C124.8 71.2996 127.2 71.9996 129.4 71.0996C130.6 70.3996 131.4 69.2996 131.8 67.6996Z" fill="#212FB5"/>
<path d="M139.6 51.3996L137 52.0996C136.3 49.4996 137.2 47.4996 139.2 46.8996C141.1 46.2996 142.3 47.5996 143.3 47.2996C143.9 47.0996 144.2 46.5996 144 45.7996L146.6 45.0996C147.3 47.6996 146.4 49.6996 144.4 50.2996C142.5 50.8996 141.3 49.5996 140.3 49.8996C139.6 50.0996 139.4 50.6996 139.6 51.3996ZM149.9 65.4996L143.2 67.2996L142.8 70.5996L136.9 72.2996L139.7 52.8996L145.4 51.1996L157.8 66.3996L151.7 68.0996L149.9 65.4996ZM147.1 61.7996L144.1 57.8996L143.5 62.6996L147.1 61.7996Z" fill="#212FB5"/>
<path d="M156.4 57.7C155.9 52.3 159.7 47.9 165.7 47.4C171.6 46.9 176.2 50.4 176.8 55.7C177.3 61.1 173.5 65.5 167.5 66C161.5 66.8 156.9 63.3 156.4 57.7ZM170.4 56.4C170.2 53.6 168.2 52.1 166 52.3C163.8 52.5 162.1 54.3 162.5 57.1C162.7 59.9 164.7 61.4 166.9 61.2C169.1 61.1 170.8 59.2 170.4 56.4Z" fill="#212FB5"/>
<path d="M199.5 57.4001L204.7 58.1001L203.6 65.7001C201.2 66.8001 198 67.2001 195.5 67.0001C189.8 66.3001 186.1 61.8001 186.8 56.3001C187.5 50.8001 192.4 47.6001 198.3 48.4001C201.8 49.0001 204.4 50.4001 206.1 53.0001L201.8 55.8001C200.9 54.3001 199.6 53.6001 198.1 53.2001C195.5 52.8001 193.5 54.3001 193.1 57.1001C192.7 59.7001 194.2 61.7001 196.8 62.1001C197.5 62.3001 198.3 62.1001 199 61.9001L199.5 57.4001Z" fill="#212FB5"/>
<path d="M218 68.6996L211.5 66.6996L209.5 69.2996L203.6 67.3996L216.6 52.5996L222.3 54.4996L224.5 74.0996L218.6 72.1996L218 68.6996ZM217.8 63.8996L217.4 59.0996L214.4 62.9996L217.8 63.8996Z" fill="#212FB5"/>
<path d="M233.3 73.7002L231.8 73.0002L229.8 77.1002L224.4 74.3002L232.6 58.2002L240.4 62.1002C244.8 64.3002 246.5 68.2002 244.6 71.9002C243.5 74.3002 241.4 75.4002 239 75.4002L239.9 82.1002L234.2 79.1002L233.3 73.7002ZM237.8 66.0002L235.8 65.1002L233.9 68.8002L235.9 69.7002C237.4 70.4002 238.5 70.1002 239 69.0002C239.6 67.8002 239.2 66.9002 237.8 66.0002Z" fill="#212FB5"/>
<path d="M252.5 87.3996L247 83.2996L244.2 85.0996L239.2 81.3996L256.2 71.5996L261 75.0996L256.7 94.2996L251.7 90.5996L252.5 87.3996ZM253.8 82.7996L255.1 78.1996L251 80.7996L253.8 82.7996Z" fill="#212FB5"/>
<path d="M282.3 95.1004L269.3 107.7L265.8 104.2L266.9 93.7004L261 99.4004L257 95.0004L270 82.4004L273.5 85.9004L272.4 96.4004L278.3 90.7004L282.3 95.1004Z" fill="#212FB5"/>
<path d="M283.6 104.9L280.6 100.6L284.5 97.7998L294.1 111.3L290.2 114.1L287.1 109.8L276.2 117.5L272.7 112.5L283.6 104.9Z" fill="#212FB5"/>
<path d="M295.4 114.1L298.4 119.5L282.7 128.4L279.7 123L295.4 114.1Z" fill="#212FB5"/>
<path d="M300.8 123.6L304.1 131.7C306.3 137.2 304.6 142.4 299.5 144.4C294.3 146.4 289.5 144 287.3 138.3L284 130.2L300.8 123.6ZM291.7 136.5C292.6 138.9 294.7 139.8 297.2 138.9C299.8 137.8 300.5 135.8 299.6 133.4L298.7 131L290.7 134.1L291.7 136.5Z" fill="#212FB5"/>
<path d="M297 160.3L295.5 153.6L292.2 153L290.9 146.9L310.1 150.8L311.4 156.7L295.5 168.1L294.2 162L297 160.3ZM301.1 157.8L305.2 155.2L300.4 154.5L301.1 157.8Z" fill="#212FB5"/>
<path d="M175.5 20.2003C87.2 20.1003 15.6 91.7003 15.4 179.7C15.3 267.9 87 339.5 175 339.7C263.1 339.8 334.9 268.2 335.1 180.2C335.2 92.0003 263.7 20.3003 175.5 20.2003ZM175 331.3C91.4 331.2 23.8 263.4 23.9 179.9C24 96.3003 91.8 28.8003 175.4 28.9003C259 29.0003 326.6 96.8003 326.5 180.3C326.5 263.7 258.6 331.5 175 331.3Z" fill="url(#paint4_linear_453:251)"/>
<path d="M277.6 181C277.5 235 233.8 278.5 179.8 278.5C126 278.4 82.2 234.7 82.3 180.8C82.4 126.8 126.1 83.2998 180.1 83.2998C234 83.2998 277.6 127.2 277.6 181Z" fill="#4955FF"/>
<path d="M177.6 254.1L174.3 247.1L166.3 245.8L172 240.4L170.7 232.6L177.5 236.3L184.5 232.6L183.2 240.4L188.7 246L180.9 247.1L177.6 254.1Z" fill="#E6AC4B"/>
<path d="M211.2 246L207.3 241.9L201.7 242.8L204.3 237.8L201.7 232.8L207.2 233.7L211.1 229.8L212 235.3L217 237.7L211.8 240.3L211.2 246Z" fill="#E6AC4B"/>
<path d="M145.4 245.7L149.3 241.6L154.8 242.5L152.2 237.5L154.8 232.5L149.2 233.6L145.3 229.5L144.4 235L139.4 237.6L144.6 240L145.4 245.7Z" fill="#E6AC4B"/>
<path d="M160 131.5V141.7H173.5V168.7H183.7V141.7H197.2V131.5H160Z" stroke="white" stroke-width="2" stroke-miterlimit="10"/>
<path d="M173.5 121.3V111.1H149.8H139.6V121.3L139.5 168.6V178.8H149.7H173.4V168.6H149.7L149.8 121.3H173.5Z" stroke="white" stroke-width="2" stroke-miterlimit="10"/>
<path d="M183.6 168.7V178.9H207.3H217.5V168.7L217.6 121.4V111.2H207.4H183.7V121.4H207.4L207.3 168.7H183.6Z" stroke="white" stroke-width="2" stroke-miterlimit="10"/>
<path d="M197.2 131.5H183.7V141.7H197.2V131.5Z" stroke="white" stroke-width="2" stroke-miterlimit="10"/>
<path d="M123.5 193.899V216.999H115.7V199.799H111.7V193.899H123.5Z" fill="white"/>
<path d="M148.7 212.999H145.6V216.999H138V212.999H126V208.099L135.8 193.899H143.8L135.1 206.999H138.2V203.499H145.5V206.999H148.6V212.999H148.7Z" fill="white"/>
<path d="M160.6 193.899H172C179.7 193.899 185 198.299 185 205.399C185 212.499 179.7 216.899 172 216.899H160.6V193.899ZM171.7 210.899C175 210.899 177.2 208.999 177.2 205.399C177.2 201.799 175 199.899 171.7 199.899H168.4V210.799H171.7V210.899Z" fill="white"/>
<path d="M187.9 193.899H195.7V216.999H187.9V193.899Z" fill="white"/>
<path d="M215.1 212.999H206.3L204.8 216.999H196.9L207 193.899H214.6L224.7 216.999H216.7L215.1 212.999ZM213 207.399L210.8 201.599L208.6 207.399H213Z" fill="white"/>
<path d="M224.5 215.2L227 209.5C229.2 210.8 232.1 211.6 234.6 211.6C236.8 211.6 237.6 211.1 237.6 210.3C237.6 207.4 224.8 209.7 224.8 201.1C224.8 196.8 228.4 193.3 235.5 193.3C238.6 193.3 241.8 194 244.2 195.3L242 201C239.7 199.8 237.6 199.3 235.6 199.3C233.3 199.3 232.6 200 232.6 200.8C232.6 203.6 245.4 201.3 245.4 209.8C245.4 214 241.8 217.6 234.7 217.6C230.7 217.5 226.8 216.6 224.5 215.2Z" fill="white"/>
</g>
<defs>
<linearGradient id="paint0_linear_453:251" x1="101.592" y1="50.0586" x2="248.526" y2="309.046" gradientUnits="userSpaceOnUse">
<stop stop-color="#F5EA85"/>
<stop offset="0.7919" stop-color="#D9C23F"/>
<stop offset="1" stop-color="#EDDE41"/>
</linearGradient>
<linearGradient id="paint1_linear_453:251" x1="0.28918" y1="177.994" x2="355.3" y2="178.513" gradientUnits="userSpaceOnUse">
<stop stop-color="#F7E470"/>
<stop offset="0.2792" stop-color="#F3D660"/>
<stop offset="0.6396" stop-color="#B18536"/>
<stop offset="1" stop-color="#CCA438"/>
</linearGradient>
<linearGradient id="paint2_linear_453:251" x1="107.008" y1="44.7419" x2="243.537" y2="314.746" gradientUnits="userSpaceOnUse">
<stop stop-color="#F7E470"/>
<stop offset="0.2792" stop-color="#F3D660"/>
<stop offset="0.6396" stop-color="#B18536"/>
<stop offset="1" stop-color="#CCA438"/>
</linearGradient>
<linearGradient id="paint3_linear_453:251" x1="96.552" y1="240.541" x2="256.365" y2="119.99" gradientUnits="userSpaceOnUse">
<stop stop-color="#F5EA85"/>
<stop offset="0.7919" stop-color="#D9C23F"/>
<stop offset="1" stop-color="#EDDE41"/>
</linearGradient>
<linearGradient id="paint4_linear_453:251" x1="40.1891" y1="261.45" x2="309.413" y2="98.9696" gradientUnits="userSpaceOnUse">
<stop stop-color="#F5EA85"/>
<stop offset="0.7919" stop-color="#D9C23F"/>
<stop offset="1" stop-color="#EDDE41"/>
</linearGradient>
<clipPath id="clip0_453:251">
<rect width="355.5" height="356.6" fill="white"/>
</clipPath>
</defs>
</svg>
